# AST/ASF file generated using VICON BodyLanguage
# -----------------------------------------------
:version 1.10
:name VICON
:units
  mass 1.0
  length 0.45
  angle deg
:documentation
   .ast/.asf automatically generated from VICON data using
   VICON BodyBuilder and BodyLanguage model FoxedUp or BRILLIANT.MOD
:root
   order TX TY TZ RX RY RZ
   axis XYZ
   position 0 0 0  
   orientation 0 0 0 
:bonedata
  begin
     id 1 
     name lhipjoint
     direction 0.54267 -0.795011 0.271047 
     length 2.39899 
     axis 0 0 0  XYZ
  end
  begin
     id 2 
     name lfemur
     direction 0.34202 -0.939693 0  
     length 7.49701  
     axis 0 0 20  XYZ
    dof rx ry rz
    limits (-160.0 20.0)
           (-70.0 70.0)
           (-60.0 70.0)
  end
  begin
     id 3 
     name ltibia
     direction 0.34202 -0.939693 0   
     length 8.1668   
     axis 0 0 20   XYZ
    dof rx
    limits (-10.0 170.0)
  end
  begin
     id 4 
     name lfoot
     direction 0.0736283 -0.202292 0.976554   
     length 2.13544   
     axis -90 7.62852e-016 20   XYZ
    dof rx rz
    limits (-45.0 90.0)
           (-70.0 20.0)
  end
  begin
     id 5 
     name ltoes
     direction 1.53557e-011 -4.22024e-011 1   
     length 1.07411   
     axis -90 7.62852e-016 20   XYZ
    dof rx
    limits (-90.0 20.0)
  end
  begin
     id 6 
     name rhipjoint
     direction -0.538061 -0.797813 0.272002   
     length 2.39057  
     axis 0 0 0  XYZ 
  end
  begin
     id 7 
     name rfemur
     direction -0.34202 -0.939693 0   
     length 7.50152   
     axis 0 0 -20   XYZ
    dof rx ry rz
    limits (-160.0 20.0)
           (-70.0 70.0)
           (-70.0 60.0)
  end
  begin
     id 8 
     name rtibia
     direction -0.34202 -0.939693 0   
     length 8.05793   
     axis 0 0 -20   XYZ
    dof rx
    limits (-10.0 170.0)
 end
 begin
     id 9 
     name rfoot
     direction -0.0765195 -0.210236 0.974652   
     length 2.28698  
     axis -90 -7.62852e-016 -20   XYZ
    dof rx rz
    limits (-45.0 90.0)
           (-20.0 70.0)
  end
  begin
     id 10 
     name rtoes
     direction -1.53542e-011 -4.21847e-011 1   
     length 1.14762   
     axis -90 -7.62852e-016 -20   XYZ
    dof rx
    limits (-90.0 20.0)
  end
  begin
     id 11 
     name lowerback
     direction -0.0217239 0.996592 -0.0795765   
     length 2.08176   
     axis 0 0 0   XYZ
    dof rx ry rz
    limits (-20.0 45.0)
           (-30.0 30.0)
           (-30.0 30.0)
  end
  begin
     id 12 
     name upperback
     direction -0.00563773 0.999651 -0.0258155   
     length 2.08898   
     axis 0 0 0   XYZ
    dof rx ry rz
    limits (-20.0 45.0)
           (-30.0 30.0)
           (-30.0 30.0)
  end
  begin
     id 13 
     name thorax
     direction 0.0032706 0.999923 0.0119599   
     length 2.0968   
     axis 0 0 0   XYZ
    dof rx ry rz
    limits (-20.0 45.0)
           (-30.0 30.0)
           (-30.0 30.0)
  end
  begin
     id 14 
     name lowerneck
     direction -0.0285886 0.99568 0.0883427   
     length 1.81272   
     axis 0 0 0   XYZ
    dof rx ry rz
    limits (-20.0 45.0)
           (-30.0 30.0)
           (-30.0 30.0)
  end
  begin
     id 15 
     name upperneck
     direction 0.0807535 0.97985 -0.18268   
     length 1.82518   
     axis 0 0 0   XYZ
    dof rx ry rz
    limits (-20.0 45.0)
           (-30.0 30.0)
           (-30.0 30.0)
  end
  begin
     id 16
     name head
     direction 0.0236605 0.997053 -0.0729767  
     length 1.84443  
     axis 0 0 0   XYZ
    dof rx ry rz
    limits (-20.0 45.0)
           (-30.0 30.0)
           (-30.0 30.0)
  end
  begin
     id 17 
     name lclavicle
     direction 0.918986 0.39378 -0.0200683  
     length 3.27822  
     axis 0 0 0   XYZ
    dof ry rz
    limits (-20.0 10.0)
           (0.0 20.0)
  end
  begin
     id 18 
     name lhumerus
     direction 1 -4.4897e-011 2.09544e-027   
     length 5.5568   
     axis 180 -30 -90   XYZ
    dof rx ry rz
    limits (-60.0 90.0)
           (-90.0 90.0)
           (-90.0 90.0)
  end
  begin
     id 19
     name lradius
     direction 1 -4.48957e-011 -1.27696e-026   
     length 3.63979   
     axis 180 -30 -90   XYZ
    dof rx
    limits (-10.0 170.0)
  end
  begin
     id 20
     name lwrist
     direction 1 -4.49001e-011 -1.49001e-026   
     length 1.8199   
     axis 9.0955e-015 90 90   XYZ
    dof ry
    limits (-180.0 0.0)
 end
  begin
     id 21 
     name lhand
     direction 1 -4.48709e-011 -2.9758e-026   
     length 0.569419   
     axis 1.90115e-014 90 90   XYZ
    dof rx rz
    limits (-90.0 90.0)
           (-45.0 45.0)
  end
  begin
     id 22 
     name lfingers
     direction 1 -4.49175e-011 -5.96505e-026   
     length 0.45908   
     axis 3.80223e-014 90 90   XYZ
    dof rx
    limits (0.0 90.0)
  end
  begin
     id 23
     name lthumb
     direction 0.707107 -6.34864e-011 0.707107   
     length 0.65915   
     axis -90 45 -3.84942e-014   XYZ
    dof rx rz
    limits (-45.0 45.0)
           (-45.0 45.0)
  end
  begin
     id 24 
     name rclavicle
     direction -0.911913 0.396426 -0.106115   
     length 3.46301  
     axis 0 0 0   XYZ 
    dof ry rz
    limits (-10.0 20.0)
           (-20.0 0.0)
  end
  begin
     id 25 
     name rhumerus
     direction -1 -4.48965e-011 7.78516e-028  
     length 5.34339   
     axis 180 30 90   XYZ
    dof rx ry rz
    limits (-90.0 60.0)
           (-90.0 90.0)
           (-90.0 90.0)
  end
  begin
     id 26 
     name rradius
     direction -1 -4.48948e-011 -5.79823e-027   
     length 3.65101   
     axis 180 30 90   XYZ
    dof rx
    limits (-10.0 170.0)
  end
  begin
     id 27 
     name rwrist
     direction -1 -4.48995e-011 -1.48996e-026   
     length 1.8255   
     axis 9.0955e-015 -90 -90   XYZ
    dof ry
    limits (-180.0 0.0)
  end
  begin
     id 28
     name rhand
     direction -1 -4.48957e-011 -2.97937e-026   
     length 0.694249   
     axis 1.90115e-014 -90 -90   XYZ
    dof rx rz
    limits (-90.0 90.0)
           (-45.0 45.0)
  end
  begin
     id 29
     name rfingers
     direction -1 -4.4898e-011 -5.95943e-026   
     length 0.559721   
     axis 3.80223e-014 -90 -90   XYZ
    dof rx
    limits (0.0 90.0)
  end
  begin
     id 30
     name rthumb
     direction -0.707107 -6.34969e-011 0.707107   
     length 0.803651   
     axis -90 -45 3.84942e-014   XYZ
    dof rx rz
    limits (-45.0 45.0)
           (-45.0 45.0)
  end
:hierarchy
  begin
    root lhipjoint rhipjoint lowerback
    lhipjoint lfemur
    lfemur ltibia
    ltibia lfoot
    lfoot ltoes
    rhipjoint rfemur
    rfemur rtibia
    rtibia rfoot
    rfoot rtoes
    lowerback upperback
    upperback thorax
    thorax lowerneck lclavicle rclavicle
    lowerneck upperneck
    upperneck head
    lclavicle lhumerus
    lhumerus lradius
    lradius lwrist
    lwrist lhand lthumb
    lhand lfingers
    rclavicle rhumerus
    rhumerus rradius
    rradius rwrist
    rwrist rhand rthumb
    rhand rfingers
  end

#!OML:ASF H:\Terrain\Walking\May29\JustinRory\rory.ASF
:FULLY-SPECIFIED
:DEGREES
242
root 12.4435 10.5673 11.0496 -14.954 17.5716 2.38956
lowerback 46.728 -3.80512 -8.18619
upperback 13.8044 -7.72396 0.735589
thorax -4.63916 -3.88995 7.96063
lowerneck 6.99291 -24.3558 -14.6416
upperneck -6.11213 -34.8925 37.2034
head 6.89332 -18.3852 9.93141
rclavicle -1.11319e-013 7.79236e-014
rhumerus -37.7641 -19.7139 -60.4859
rradius 102.461
rwrist 6.31971
rhand -2.68934 20.6348
rfingers 7.12502
rthumb 23.0121 -8.01141
lclavicle -1.11319e-013 7.79236e-014
lhumerus -13.9238 2.31883 30.5121
lradius 89.2569
lwrist 13.3834
lhand -11.2079 14.9016
lfingers 7.12502
lthumb 14.8202 44.3516
rfemur -74.0238 -14.3323 -1.25514
rtibia 119.391
rfoot -15.0524 6.16907
rtoes -17.4887
lfemur -68.3136 20.7986 4.3732
ltibia 107.991
lfoot -8.92908 -21.8787
ltoes -33.3944
243
root 12.4676 10.5844 11.0663 -14.5543 17.2033 2.16055
lowerback 46.8769 -3.68035 -8.33853
upperback 13.4108 -7.6646 0.965477
thorax -5.08308 -3.84124 8.30032
lowerneck 7.09826 -24.4448 -14.7729
upperneck -6.29258 -35.0042 37.239
head 6.88126 -18.4601 9.93181
rclavicle -9.26337e-014 -2.38542e-015
rhumerus -36.6831 -18.1143 -61.7349
rradius 100.99
rwrist 5.86424
rhand -3.40207 21.6679
rfingers 7.12502
rthumb 22.328 -7.06199
lclavicle -9.26337e-014 -2.38542e-015
lhumerus -14.563 1.30995 30.9672
lradius 90.2892
lwrist 13.2652
lhand -11.019 15.1099
lfingers 7.12502
lthumb 15.0022 44.5465
rfemur -75.4388 -13.8719 -1.30616
rtibia 119.729
rfoot -13.7282 7.28478
rtoes -15.5706
lfemur -68.1645 21.4696 4.51003
ltibia 109.712
lfoot -11.0183 -20.1767
ltoes -34.7657
244
root 12.4862 10.6071 11.0885 -14.0066 16.525 1.1059
lowerback 46.2862 -3.70611 -7.83626
upperback 13.33 -7.42665 1.28263
thorax -5.09515 -3.73803 8.29081
lowerneck 7.17467 -24.5127 -14.656
upperneck -6.76737 -34.9927 37.4309
head 6.7444 -18.5151 9.99814
rclavicle -4.96962e-014 5.32743e-014
rhumerus -35.6086 -16.5942 -63.0212
rradius 99.409
rwrist 5.55237
rhand -4.61511 21.9271
rfingers 7.12502
rthumb 21.1632 -6.93781
lclavicle -4.96962e-014 5.32743e-014
lhumerus -14.7165 0.517839 31.2491
lradius 90.9686
lwrist 13.1097
lhand -10.8009 14.772
lfingers 7.12502
lthumb 15.2123 44.1927
rfemur -77.1556 -12.8542 -0.162032
rtibia 119.836
rfoot -13.0285 7.06711
rtoes -15.8866
lfemur -68.3605 22.5502 5.63296
ltibia 110.996
lfoot -12.2692 -19.6928
ltoes -33.3123
245
root 12.4982 10.6294 11.1176 -13.6625 16.4074 0.796354
lowerback 46.0885 -3.61672 -7.94292
upperback 13.3114 -7.34182 1.45052
thorax -5.04977 -3.71529 8.48712
lowerneck 7.06919 -24.6819 -14.2631
upperneck -7.04158 -35.1035 37.3754
head 6.61275 -18.5917 9.91015
rclavicle -2.46493e-014 -3.18055e-015
rhumerus -34.745 -15.2594 -64.1747
rradius 97.7902
rwrist 5.73139
rhand -6.20677 22.2258
rfingers 7.12502
rthumb 19.6336 -6.80279
lclavicle -2.46493e-014 -3.18055e-015
lhumerus -14.56 -0.364723 31.4106
lradius 91.4726
lwrist 12.7368
lhand -10.6968 14.3601
lfingers 7.12502
lthumb 15.3126 43.7732
rfemur -77.8428 -12.646 0.0591295
rtibia 119.775
rfoot -12.7571 6.31946
rtoes -14.8232
lfemur -68.1163 22.4953 5.87777
ltibia 111.676
lfoot -14.3121 -18.9541
ltoes -33.4204
246
root 12.5249 10.6102 11.1396 -12.8634 16.4104 1.08547
lowerback 45.8241 -3.49188 -8.39384
upperback 13.0225 -7.38125 1.53633
thorax -5.23817 -3.72886 8.83044
lowerneck 6.86894 -25.0258 -14.178
upperneck -6.85313 -35.6476 37.3926
head 6.82509 -18.8125 9.70188
rclavicle -6.87795e-014 6.59965e-014
rhumerus -33.9555 -13.5608 -65.0566
rradius 95.924
rwrist 5.82168
rhand -7.22013 22.9935
rfingers 7.12502
rthumb 18.6591 -6.1316
lclavicle -6.87795e-014 6.59965e-014
lhumerus -14.6408 -1.20688 31.7463
lradius 92.0622
lwrist 12.088
lhand -10.3792 14.1419
lfingers 7.12502
lthumb 15.6184 43.5314
rfemur -79.1251 -13.155 -0.454301
rtibia 119.783
rfoot -12.6119 5.82936
rtoes -15.9706
lfemur -68.294 22.1054 5.18532
ltibia 111.948
lfoot -17.2788 -17.1045
ltoes -35.9258
247
root 12.5339 10.6041 11.1663 -12.3615 16.2734 0.763402
lowerback 45.6713 -3.47115 -8.55966
upperback 12.8704 -7.41642 1.6892
thorax -5.32818 -3.75004 9.09859
lowerneck 6.64705 -25.1727 -14.1843
upperneck -6.79855 -35.9502 37.783
head 7.05791 -18.9408 9.67395
rclavicle -1.51076e-014 4.45278e-014
rhumerus -32.9721 -11.6324 -66.1485
rradius 93.9661
rwrist 5.51133
rhand -7.76627 24.1153
rfingers 7.12502
rthumb 18.1337 -5.05941
lclavicle -1.51076e-014 4.45278e-014
lhumerus -14.9263 -1.62072 31.8241
lradius 92.8062
lwrist 11.7958
lhand -9.50929 14.364
lfingers 7.12502
lthumb 16.4561 43.686
rfemur -80.0651 -12.9406 -0.181607
rtibia 119.525
rfoot -12.534 4.72786
rtoes -14.4767
lfemur -67.8718 21.606 5.39452
ltibia 111.418
lfoot -20.5236 -14.8979
ltoes -38.7868
248
root 12.5313 10.6116 11.1949 -12.065 16.1537 0.414881
lowerback 45.7027 -3.39772 -8.79705
upperback 12.769 -7.43479 1.77839
thorax -5.40856 -3.76337 9.33058
lowerneck 6.74166 -25.1943 -14.1908
upperneck -7.00315 -36.0447 38.3791
head 7.16467 -19.0365 9.82347
rclavicle 2.94201e-014 -2.06736e-014
rhumerus -32.2567 -9.82403 -67.3401
rradius 92.2765
rwrist 5.41229
rhand -8.58512 25.8061
rfingers 7.12502
rthumb 17.3458 -3.4399
lclavicle 2.94201e-014 -2.06736e-014
lhumerus -15.0474 -2.30597 31.4327
lradius 93.4521
lwrist 12.0556
lhand -8.22302 16.0931
lfingers 7.12502
lthumb 17.6942 45.3081
rfemur -80.566 -12.4054 0.103028
rtibia 119.084
rfoot -12.0018 3.34835
rtoes -12.9884
lfemur -66.9755 20.7474 5.87142
ltibia 110.424
lfoot -23.5649 -12.2916
ltoes -43.5677
249
root 12.535 10.6285 11.2194 -11.6414 16.116 0.391851
lowerback 45.6977 -3.26152 -9.15062
upperback 12.6113 -7.43351 1.80307
thorax -5.53844 -3.75797 9.54543
lowerneck 7.07189 -25.2861 -14.44
upperneck -7.10161 -36.2993 38.9339
head 7.34734 -19.214 9.95825
rclavicle 8.74653e-015 -6.36111e-015
rhumerus -31.6753 -8.25777 -68.3389
rradius 90.6786
rwrist 5.48799
rhand -9.10922 27.1397
rfingers 7.12502
rthumb 16.8413 -2.14998
lclavicle 8.74653e-015 -6.36111e-015
lhumerus -14.794 -3.21723 31.0029
lradius 93.7015
lwrist 11.9708
lhand -8.08964 16.5782
lfingers 7.12502
lthumb 17.8226 45.7815
rfemur -80.8065 -12.1341 -0.0991992
rtibia 118.563
rfoot -12.0991 2.25726
rtoes -12.6227
lfemur -66.4169 19.7115 6.06968
ltibia 109.683
lfoot -25.2524 -10.1644
ltoes -48.186
250
root 12.5406 10.6418 11.2555 -11.0819 16.0282 0.479219
lowerback 45.3417 -3.09216 -9.65556
upperback 12.6188 -7.42188 1.82941
thorax -5.37341 -3.78077 9.80436
lowerneck 7.12465 -25.3765 -14.6221
upperneck -7.1645 -36.5378 39.4268
head 7.55582 -19.3526 10.0308
rclavicle -2.46493e-014 3.89618e-014
rhumerus -30.8394 -6.70702 -69.3566
rradius 89.0507
rwrist 5.18456
rhand -8.93523 26.9394
rfingers 7.12502
rthumb 17.0088 -2.3359
lclavicle -2.46493e-014 3.89618e-014
lhumerus -14.6408 -3.65523 30.8627
lradius 93.9313
lwrist 11.072
lhand -9.27307 14.6607
lfingers 7.12502
lthumb 16.6836 43.9638
rfemur -81.1406 -11.8451 -0.302056
rtibia 117.955
rfoot -12.5131 0.948943
rtoes -9.93809
lfemur -66.5034 19.1058 6.21869
ltibia 109.524
lfoot -25.1594 -10.7265
ltoes -47.6773
251
root 12.5473 10.6354 11.3057 -10.7092 15.9538 0.318227
lowerback 45.1061 -2.9734 -9.92065
upperback 12.6205 -7.3671 1.92244
thorax -5.27714 -3.77563 10.0077
lowerneck 7.31653 -25.4664 -14.7138
upperneck -7.578 -36.69 40.0948
head 7.64201 -19.5073 10.2005
rclavicle 2.14687e-014 -3.26007e-014
rhumerus -30.3951 -5.13044 -70.3084
rradius 87.8027
rwrist 4.56869
rhand -8.46893 26.7051
rfingers 7.12502
rthumb 17.4576 -2.53098
lclavicle 2.14687e-014 -3.26007e-014
lhumerus -14.4707 -4.18634 30.9231
lradius 94.1936
lwrist 10.3379
lhand -9.73985 13.8664
lfingers 7.12502
lthumb 16.2341 43.2067
rfemur -81.3381 -11.4133 -0.151902
rtibia 117.259
rfoot -12.759 -1.03612
rtoes -9.48914
lfemur -66.8698 18.8725 6.52555
ltibia 109.685
lfoot -24.7178 -11.3809
ltoes -45.9578
